<?xml version="1.0" standalone="no"?>
<!DOCTYPE svg PUBLIC "-//W3C//DTD SVG 20010904//EN"
 "http://www.w3.org/TR/2001/REC-SVG-20010904/DTD/svg10.dtd">
<svg version="1.0" xmlns="http://www.w3.org/2000/svg"
 width="200.000000pt" height="200.000000pt" viewBox="0 0 100.000000 100.000000"
 preserveAspectRatio="xMidYMid meet">
<metadata>
Created by potrace 1.16, written by Peter Selinger 2001-2019
</metadata>
<g transform="translate(0.000000,100.000000) scale(0.009259,-0.009259)"
fill="#000000" stroke="none">
<path d="M4812 8010 c-108 -39 -165 -93 -208 -198 -22 -54 -24 -70 -24 -269
l0 -212 -62 -61 -62 -60 -91 0 c-211 -1 -364 -32 -492 -100 -165 -88 -270
-197 -353 -365 -92 -186 -84 -34 -87 -1722 -3 -1455 -3 -1495 16 -1590 36
-177 155 -375 286 -476 75 -57 181 -114 270 -145 l80 -27 1310 0 1310 0 75 23
c161 50 301 145 405 275 78 96 127 193 158 309 l22 83 0 1520 0 1520 -23 79
c-65 226 -211 407 -413 515 -131 70 -280 100 -499 101 l-95 1 -25 33 c-14 19
-39 44 -57 56 l-31 21 -4 227 c-3 220 -4 229 -29 282 -35 74 -105 143 -177
172 -57 23 -57 23 -602 25 -514 2 -548 1 -598 -17z m998 -336 c53 -31 82 -87
77 -152 -4 -56 -23 -91 -71 -126 -27 -20 -39 -21 -415 -21 l-388 0 -37 29
c-43 32 -66 78 -66 132 0 41 22 94 50 119 46 42 78 45 455 42 343 -2 362 -3
395 -23z m-1389 -854 c12 -114 60 -210 146 -294 65 -64 127 -99 208 -121 87
-22 1162 -22 1248 0 189 49 334 216 355 410 l7 60 95 3 c52 2 122 -2 155 -8
184 -35 343 -185 389 -366 14 -55 16 -225 16 -1516 0 -1590 3 -1510 -58 -1622
-35 -66 -121 -158 -178 -191 -25 -15 -71 -36 -102 -48 l-57 -22 -1207 -3
c-1311 -3 -1281 -4 -1404 52 -71 33 -173 131 -212 204 -66 125 -62 15 -62
1633 0 1436 0 1468 20 1530 55 176 186 300 365 345 28 7 99 12 160 11 l110 -2
6 -55z"/>
<path d="M5568 5699 c-47 -14 -117 -73 -134 -116 -28 -67 -12 -145 42 -195 16
-15 67 -43 114 -63 111 -47 130 -60 130 -90 0 -59 -92 -73 -185 -26 l-58 29
-26 -31 c-65 -76 -64 -77 26 -122 86 -42 200 -47 276 -12 80 36 117 90 117
169 0 109 -33 146 -187 207 -111 45 -133 71 -93 111 26 26 78 26 142 -2 l51
-22 38 45 c44 51 42 57 -37 95 -61 30 -156 40 -216 23z"/>
<path d="M4310 5640 l0 -60 85 0 85 0 0 -260 0 -260 75 0 75 0 2 258 3 257 88
3 87 3 0 59 0 60 -250 0 -250 0 0 -60z"/>
<path d="M4891 5389 c-51 -166 -95 -308 -98 -316 -5 -11 8 -13 73 -11 l78 3 9
35 c4 19 13 52 18 73 l10 37 94 0 94 0 10 -37 c5 -21 14 -54 18 -73 l9 -35 77
-3 c52 -2 77 1 77 8 0 11 -113 378 -166 543 l-26 77 -92 0 -92 0 -93 -301z
m214 81 c14 -58 28 -113 31 -122 5 -16 -2 -18 -61 -18 -58 0 -66 2 -61 18 5
17 38 152 50 206 4 15 9 27 11 25 2 -2 15 -51 30 -109z"/>
<path d="M5980 5375 l0 -315 80 0 80 0 0 88 c1 81 3 90 31 127 16 22 33 39 36
38 3 0 38 -57 78 -125 l71 -123 82 -3 c45 -2 82 -1 82 2 0 3 -47 83 -105 179
-57 96 -107 181 -110 189 -3 8 23 52 61 104 37 49 79 104 92 122 l24 32 -83 0
-84 -1 -85 -120 -85 -120 -3 121 -3 120 -79 0 -80 0 0 -315z"/>
<path d="M5898 4896 c-153 -41 -208 -208 -101 -308 16 -15 71 -46 123 -69 52
-22 101 -45 108 -51 19 -16 15 -66 -7 -78 -38 -20 -113 -11 -168 19 l-52 29
-42 -51 -43 -50 30 -24 c80 -64 234 -86 324 -46 87 38 138 124 125 211 -10 68
-65 119 -175 162 -47 18 -96 43 -109 56 -23 22 -24 24 -7 48 9 14 26 27 39 27
52 4 94 -4 126 -23 l35 -20 18 24 c10 13 27 35 38 49 l20 27 -39 25 c-42 28
-131 57 -170 56 -14 0 -47 -6 -73 -13z"/>
<path d="M3980 4580 l0 -320 75 0 75 0 0 120 0 119 108 3 107 3 3 63 3 62
-111 0 -110 0 0 70 0 70 125 0 125 0 0 65 0 65 -200 0 -200 0 0 -320z"/>
<path d="M4500 4575 l0 -315 75 0 75 0 0 315 0 315 -75 0 -75 0 0 -315z"/>
<path d="M4800 4575 l0 -315 70 0 70 0 -1 158 c0 86 -4 184 -8 217 -5 33 -7
61 -6 62 1 2 51 -95 111 -215 l110 -217 77 -3 77 -3 0 316 0 315 -71 0 -72 0
7 -182 c4 -101 9 -201 12 -223 5 -29 -24 20 -106 183 l-113 222 -78 0 -79 0 0
-315z"/>
<path d="M5460 4575 l0 -315 75 0 75 0 0 315 0 315 -75 0 -75 0 0 -315z"/>
<path d="M6310 4575 l0 -315 75 0 75 0 0 130 0 130 105 0 105 0 0 -130 0 -130
75 0 75 0 0 315 0 315 -75 0 -75 0 0 -120 0 -120 -105 0 -105 0 0 120 0 120
-75 0 -75 0 0 -315z"/>
</g>
</svg>
